<?xml version="1.0" encoding="utf-8"?>
<!-- Generator: Adobe Illustrator 16.2.1, SVG Export Plug-In . SVG Version: 6.00 Build 0)  -->
<!DOCTYPE svg PUBLIC "-//W3C//DTD SVG 1.1 Tiny//EN" "http://www.w3.org/Graphics/SVG/1.1/DTD/svg11-tiny.dtd">
<svg version="1.1" baseProfile="tiny" id="Calque_1"
	 xmlns="http://www.w3.org/2000/svg" xmlns:xlink="http://www.w3.org/1999/xlink" x="0px" y="0px" width="50px" height="60px"
	 viewBox="0 0 50 60" xml:space="preserve">
<polyline fill="none" stroke="#000000" stroke-width="1.5" stroke-linecap="round" stroke-miterlimit="10" points="31.657,12.5 
	18.345,18.667 5.032,12.5 "/>
<g>
	<path d="M7.346,7.184c0.026,0.488,0.137,0.885,0.333,1.189c0.373,0.57,1.029,0.855,1.97,0.855c0.421,0,0.805-0.062,1.151-0.188
		c0.67-0.242,1.005-0.676,1.005-1.301c0-0.469-0.142-0.803-0.426-1.002c-0.288-0.195-0.738-0.365-1.351-0.51L8.899,5.965
		c-0.738-0.172-1.26-0.361-1.566-0.568C6.802,5.038,6.538,4.5,6.538,3.786c0-0.773,0.26-1.408,0.781-1.904
		c0.521-0.496,1.258-0.744,2.212-0.744c0.878,0,1.624,0.218,2.238,0.653s0.921,1.132,0.921,2.089h-1.096
		c-0.056-0.461-0.176-0.814-0.359-1.061c-0.341-0.449-0.919-0.674-1.736-0.674c-0.659,0-1.133,0.145-1.421,0.434
		C7.789,2.868,7.645,3.204,7.645,3.586c0,0.422,0.17,0.73,0.511,0.926c0.224,0.125,0.729,0.281,1.516,0.469l1.169,0.275
		c0.564,0.133,0.999,0.314,1.306,0.545c0.53,0.402,0.795,0.986,0.795,1.752c0,0.953-0.338,1.635-1.014,2.045
		s-1.462,0.615-2.357,0.615c-1.044,0-1.861-0.273-2.451-0.82C6.528,8.85,6.239,8.114,6.25,7.184H7.346z"/>
	<path d="M14.588,1.354h1.137v4.213l4.306-4.213h1.63l-3.678,3.474l3.754,5.134h-1.526l-3.084-4.325l-1.403,1.325v3h-1.137V1.354z"
		/>
	<path d="M22.856,1.354h1.178v8.607h-1.178V1.354z"/>
	<path d="M26.037,1.354h3.853c0.762,0,1.375,0.216,1.844,0.647s0.703,1.038,0.703,1.819c0,0.672-0.209,1.257-0.627,1.755
		s-1.057,0.747-1.918,0.747h-2.688v3.639h-1.166V1.354z M30.56,2.538c-0.256-0.121-0.607-0.182-1.053-0.182h-2.304v2.982h2.304
		c0.52,0,0.941-0.111,1.266-0.334s0.486-0.615,0.486-1.178C31.259,3.194,31.026,2.764,30.56,2.538z"/>
</g>
</svg>
